<?xml version="1.0" standalone="no"?>
<!DOCTYPE svg PUBLIC "-//W3C//DTD SVG 20010904//EN"
 "http://www.w3.org/TR/2001/REC-SVG-20010904/DTD/svg10.dtd">
<svg version="1.0" xmlns="http://www.w3.org/2000/svg"
 width="256.000000pt" height="427.000000pt" viewBox="0 0 256.000000 427.000000"
 preserveAspectRatio="xMidYMid meet">

<g transform="translate(0.000000,427.000000) scale(0.100000,-0.100000)"
fill="#000000" stroke="none">
<path d="M2103 3732 c-3 -8 0 -17 6 -22 10 -5 9 -9 -3 -13 -15 -6 -20 3 -17
28 1 6 -8 -1 -20 -15 -11 -14 -18 -19 -14 -12 8 15 12 18 -279 -198 -862 -640
-956 -714 -956 -745 0 -8 -6 -20 -13 -27 -7 -7 -13 -33 -12 -58 0 -25 -4 -67
-9 -95 -9 -54 1 -56 15 -3 5 22 6 6 3 -47 -4 -44 -10 -87 -14 -95 -4 -8 -10
-71 -13 -139 -4 -68 -11 -127 -16 -131 -6 -3 -13 -98 -16 -235 -4 -127 -11
-234 -16 -239 -15 -16 -11 -222 4 -234 19 -16 88 4 177 51 216 112 358 193
383 216 91 83 73 188 -57 330 -38 40 -80 100 -96 133 -92 195 -19 325 280 497
293 169 580 342 580 350 0 9 51 35 62 33 21 -5 31 50 29 165 -2 79 1 123 8
123 6 0 10 28 9 68 -1 94 12 193 28 210 17 16 19 72 3 72 -7 0 -9 9 -5 23 4
17 1 24 -10 24 -9 0 -18 -7 -21 -15z"/>
<path d="M2030 2666 c-54 -19 -459 -236 -491 -263 -54 -46 -62 -129 -20 -215
11 -24 49 -73 85 -110 80 -83 128 -176 134 -259 4 -52 0 -68 -27 -124 -40 -81
-106 -140 -248 -224 -293 -172 -647 -386 -659 -398 -7 -7 -15 -13 -19 -13 -3
0 -17 -11 -30 -24 -20 -20 -23 -31 -18 -60 5 -35 7 -36 49 -36 33 0 44 -4 44
-15 0 -21 -27 -30 -44 -15 -12 9 -19 7 -35 -9 -12 -12 -21 -25 -21 -31 0 -13
46 -24 66 -16 21 8 60 -17 69 -44 4 -11 -1 -32 -11 -49 -14 -24 -15 -33 -5
-44 22 -28 -6 -28 -39 -1 -17 15 -34 24 -37 20 -4 -3 2 -12 11 -19 17 -13 16
-16 -14 -50 -18 -20 -35 -35 -39 -33 -3 2 -6 -47 -6 -110 0 -109 1 -113 20
-108 20 5 20 5 1 -10 -11 -9 -16 -16 -10 -16 8 0 148 102 724 528 323 239 444
332 490 376 57 54 80 83 73 90 -3 3 1 8 10 11 11 5 14 17 11 48 -3 24 -1 35 3
25 5 -10 9 69 11 175 2 106 7 196 13 202 5 5 9 29 9 52 l0 44 -35 -7 c-38 -7
-41 -4 -22 27 10 17 10 23 0 26 -7 3 -13 12 -13 22 0 9 -6 23 -12 30 -11 11
-9 12 9 7 16 -5 25 -2 33 14 10 18 8 20 -22 20 -31 1 -32 1 -14 15 11 8 34 15
52 15 28 0 32 4 36 29 2 17 0 37 -5 46 -5 10 -3 31 7 58 14 40 38 342 31 397
-2 14 -4 28 -4 33 -1 11 -52 8 -91 -7z m-1155 -1726 c11 -16 27 -31 35 -34 10
-2 8 -4 -5 -5 -21 0 -75 41 -75 59 0 20 25 9 45 -20z m-5 -65 c13 -14 20 -28
17 -32 -8 -7 -57 35 -57 49 0 15 16 8 40 -17z"/>
<path d="M793 804 c-3 -8 1 -22 9 -30 12 -12 17 -12 33 -1 23 17 14 47 -15 47
-11 0 -23 -7 -27 -16z"/>
<path d="M690 382 c0 -5 7 -9 15 -9 8 0 12 4 9 9 -3 4 -9 8 -15 8 -5 0 -9 -4
-9 -8z"/>
</g>
</svg>
